<svg width="67" height="64" viewBox="0 0 67 64" fill="none" xmlns="http://www.w3.org/2000/svg">
<path d="M64.1328 22.7008L44.5672 19.8295L35.8209 1.92466C35.582 1.43443 35.189 1.03759 34.7036 0.796364C33.486 0.189419 32.0065 0.695206 31.3977 1.92466L22.6514 19.8295L3.08586 22.7008C2.54644 22.7787 2.05325 23.0354 1.67566 23.4245C1.21917 23.8983 0.967621 24.5357 0.976291 25.1966C0.984961 25.8576 1.25314 26.488 1.72189 26.9494L15.8778 40.8858L12.5334 60.5648C12.455 61.0226 12.5051 61.4934 12.6782 61.9239C12.8513 62.3543 13.1403 62.7272 13.5126 63.0002C13.8849 63.2732 14.3254 63.4354 14.7843 63.4685C15.2432 63.5015 15.7021 63.4041 16.109 63.1872L33.6093 53.8962L51.1096 63.1872C51.5874 63.4439 52.1422 63.5295 52.674 63.4361C54.0148 63.2027 54.9164 61.9188 54.6852 60.5648L51.3408 40.8858L65.4967 26.9494C65.882 26.5682 66.1363 26.0702 66.2134 25.5255C66.4214 24.1637 65.4813 22.9032 64.1328 22.7008Z" fill="#010101"/>
</svg>
